<?xml version="1.0" encoding="utf-8"?>
<!-- Generator: Adobe Illustrator 26.4.1, SVG Export Plug-In . SVG Version: 6.00 Build 0)  -->
<svg version="1.1" id="Camada_1" xmlns="http://www.w3.org/2000/svg" xmlns:xlink="http://www.w3.org/1999/xlink" x="0px" y="0px"
	 viewBox="0 0 4300.4 1333.62" style="enable-background:new 0 0 4300.4 1333.62;" xml:space="preserve">
<style type="text/css">
	.st0{fill:#991914;}
	.st1{fill:#DAD9D9;}
	.st2{fill:#C2C1C1;}
</style>
<path class="st0" d="M3711.48,426.1l128.09,102.77V978.1h-128.09V920.3c-52.52,49.12-109.01,73.68-169.46,73.68
	c-76.33,0-139.42-27.58-189.29-82.75c-49.51-56.29-74.24-126.57-74.24-210.83c0-82.74,24.74-151.69,74.24-206.86
	c49.49-55.17,111.45-82.75,185.89-82.75c64.23,0,121.85,26.45,172.86,79.36V426.1z M3408.83,700.4c0,52.9,14.17,95.97,42.5,129.22
	c29.09,33.64,65.74,50.44,109.95,50.44c47.23,0,85.38-16.24,114.48-48.73c29.09-33.64,43.64-76.32,43.64-128.09
	c0-51.76-14.55-94.45-43.64-128.09c-29.1-32.87-66.87-49.3-113.35-49.3c-43.83,0-80.48,16.63-109.95,49.88
	C3423.37,609.34,3408.83,650.9,3408.83,700.4z"/>
<path class="st1" d="M1668.88,123.64v366.5c51.01-52.9,108.82-79.36,173.43-79.36c74.42,0,136.39,27.77,185.89,83.31
	c49.5,55.17,74.24,123.93,74.24,206.3c0,85.02-24.93,155.28-74.81,210.83c-49.5,55.17-112.03,82.75-187.59,82.75
	c-63.85,0-120.91-24.56-171.16-73.68v57.81h-127.51V20.87L1668.88,123.64z M1972.09,706.07c0-52.9-14.36-95.97-43.07-129.22
	c-29.1-34.01-65.56-51.01-109.39-51.01c-46.85,0-85.01,16.43-114.48,49.3c-29.1,32.5-43.64,74.81-43.64,126.96
	c0,53.65,14.36,96.55,43.08,128.65c28.71,32.87,66.5,49.31,113.35,49.31c44.21,0,80.85-16.43,109.95-49.31
	C1957.35,797.5,1972.09,755.94,1972.09,706.07z"/>
<path class="st1" d="M2779.27,201.32c0-22.29,8.12-41.56,24.36-57.81c16.24-16.24,35.71-24.37,58.37-24.37
	c23.05,0,42.7,8.13,58.95,24.37c16.24,15.87,24.37,35.33,24.37,58.37c0,23.05-8.13,42.71-24.37,58.95
	c-15.87,16.24-35.33,24.36-58.38,24.36c-23.05,0-42.7-8.11-58.94-24.36C2787.39,244.59,2779.27,224.75,2779.27,201.32z
	 M2926.06,533.63v449.24h-127.51V430.86L2926.06,533.63z"/>
<path class="st0" d="M3188.22,128.4v854.46h-127.51V25.63L3188.22,128.4z"/>
<path class="st1" d="M0,407.68h127.51v51c24.56-25.69,45.53-43.07,62.91-52.13c18.51-9.45,41.74-14.18,69.71-14.18
	c62.34,0,111.65,27.21,147.92,81.62c40.04-54.41,94.27-81.62,162.65-81.62c124.31,0,186.46,75.38,186.46,226.14v341.18H629.09
	V653.08c0-52.89-6.43-90.3-19.27-112.22c-13.23-22.28-34.95-33.43-65.18-33.43c-35.14,0-60.74,13.24-76.8,39.67
	c-16.06,26.45-24.09,68.96-24.09,127.51v285.08H315.68V654.78c0-98.24-28.34-147.36-85.01-147.36c-35.9,0-62.06,13.42-78.49,40.25
	c-16.43,26.82-24.65,69.13-24.65,126.94v285.08H0V407.68z"/>
<path class="st1" d="M844.71,679.71c0-79.72,28.52-147.54,85.58-203.46c57.05-55.92,126.57-83.89,208.56-83.89
	c82.37,0,152.26,28.16,209.69,84.45c56.68,56.3,85.02,125.45,85.02,207.43c0,82.75-28.54,152.09-85.59,208
	c-57.43,55.54-127.89,83.31-211.39,83.31c-82.75,0-152.08-28.34-208-85.02C872.67,834.63,844.71,764.36,844.71,679.71z
	 M975.07,681.98c0,55.17,14.73,98.81,44.2,130.93c30.23,32.49,70.09,48.73,119.58,48.73c49.87,0,89.74-16.06,119.59-48.17
	c29.84-32.1,44.78-75,44.78-128.65c0-53.65-14.93-96.53-44.78-128.65c-30.24-32.5-70.09-48.75-119.59-48.75
	c-48.74,0-88.22,16.24-118.45,48.75C990.17,588.66,975.07,630.61,975.07,681.98z"/>
<path class="st0" d="M3939.37,427.55h127.51v49.3c23.43-24.56,44.22-41.38,62.35-50.44c18.51-9.45,40.42-14.18,65.74-14.18
	c33.63,0,68.76,10.97,105.42,32.87l-58.37,116.75c-24.2-17.38-47.8-26.06-70.85-26.06c-69.52,0-104.29,52.52-104.29,157.55v286.21
	h-127.51V427.55z"/>
<path class="st1" d="M2296.14,123.64v366.5c51.01-52.9,108.82-79.36,173.43-79.36c74.42,0,136.39,27.77,185.89,83.31
	c49.5,55.17,74.24,123.93,74.24,206.3c0,85.02-24.93,155.28-74.81,210.83c-49.5,55.17-112.03,82.75-187.59,82.75
	c-63.85,0-120.91-24.56-171.16-73.68v57.81h-127.51V20.87L2296.14,123.64z M2599.34,706.07c0-52.9-14.36-95.97-43.07-129.22
	c-29.1-34.01-65.56-51.01-109.39-51.01c-46.85,0-85.01,16.43-114.48,49.3c-29.1,32.5-43.64,74.81-43.64,126.96
	c0,53.65,14.36,96.55,43.08,128.65c28.71,32.87,66.5,49.31,113.35,49.31c44.21,0,80.85-16.43,109.95-49.31
	C2584.61,797.5,2599.34,755.94,2599.34,706.07z"/>
<g>
	<path class="st2" d="M26.01,1099.57l1.72,14.08h0.21c4.73-5.59,9.57-9.76,14.51-12.52c4.94-2.76,10.96-4.14,18.06-4.14
		c8.53,0,15.44,1.97,20.75,5.91c5.3,3.94,8.89,8.78,10.75,14.51h0.43c4.87-6.95,10.01-12.09,15.43-15.42c5.41-3.33,11.73-5,18.97-5
		c11.03,0,19.44,3.17,25.21,9.51c5.77,6.34,8.65,15.25,8.65,26.71v66.75h-8.6v-64.71c0-20.28-8.64-30.42-25.91-30.42
		c-6.95,0-12.92,1.88-17.9,5.64c-4.98,3.76-9.66,9.16-14.03,16.18v73.31h-8.6v-67.83c0-8.46-2.28-15.12-6.83-19.99
		c-4.55-4.87-11.02-7.31-19.4-7.31c-6.45,0-12.15,1.54-17.09,4.62c-4.94,3.08-9.82,7.56-14.62,13.44v77.07h-8.6v-100.4H26.01z"/>
	<path class="st2" d="M340.41,1149.99c0-16.05,4.1-28.9,12.31-38.54c8.2-9.64,19.12-14.46,32.73-14.46c13.69,0,24.56,4.8,32.63,14.4
		c8.06,9.6,12.09,22.47,12.09,38.59c0,15.69-4.12,28.39-12.36,38.1c-8.24,9.71-19.03,14.57-32.36,14.57
		c-13.69,0-24.62-4.78-32.79-14.35C344.49,1178.74,340.41,1165.97,340.41,1149.99z M421.14,1149.99c0-13.83-3.22-24.81-9.67-32.95
		s-15.12-12.2-26.01-12.2c-11.04,0-19.8,4.05-26.28,12.15c-6.49,8.1-9.73,19.1-9.73,33c0,13.76,3.21,24.65,9.62,32.68
		c6.41,8.03,15.21,12.04,26.39,12.04c11.03,0,19.74-3.99,26.12-11.99C417.95,1174.73,421.14,1163.82,421.14,1149.99z
		 M382.44,1079.14l13.54-37.51h11.29l-17.2,37.51H382.44z"/>
	<path class="st2" d="M606.1,1099.57l26.23,71.81c2.79,7.31,5.12,14.05,6.99,20.21h0.43l33.54-92.02h9.24l-38.16,100.4h-9.46
		l-38.05-100.4H606.1z"/>
	<path class="st2" d="M849.23,1148.7c0-10.46,1.83-19.6,5.48-27.41c3.65-7.81,8.67-13.81,15.05-18c6.38-4.19,13.54-6.29,21.5-6.29
		c11.75,0,21.14,3.85,28.16,11.55c7.02,7.7,10.53,19.83,10.53,36.39v3.76h-71.7c0,15.84,3.48,27.46,10.43,34.88
		c6.95,7.42,16.73,11.13,29.35,11.13c10.75,0,20.21-1.9,28.38-5.7v8.06c-6.66,3.73-16.12,5.59-28.38,5.59
		c-15.62,0-27.66-4.69-36.12-14.08C853.45,1179.19,849.23,1165.9,849.23,1148.7z M891.26,1104.62c-8.89,0-16.38,3.39-22.47,10.16
		c-6.09,6.77-9.53,15.5-10.32,26.18h62.67c-0.22-11.9-2.83-20.92-7.85-27.09C908.28,1107.7,900.93,1104.62,891.26,1104.62z"/>
	<path class="st2" d="M1112.45,1065.71h9.89v10.32h-9.89V1065.71z M1113.1,1099.57h8.6v100.4h-8.6V1099.57z"/>
	<path class="st2" d="M1301.93,1197.5v-8.92c7.74,4.23,16.84,6.34,27.3,6.34c8.53,0,15.28-1.99,20.26-5.97
		c4.98-3.98,7.47-9.55,7.47-16.71c0-5.45-1.65-9.64-4.94-12.58c-3.3-2.94-8.81-5.34-16.55-7.2c-7.09-1.72-12.9-3.51-17.41-5.37
		c-4.51-1.86-8.21-4.59-11.07-8.17c-2.87-3.58-4.3-8.31-4.3-14.19c0-9.39,3.15-16.36,9.46-20.91c6.31-4.55,14.37-6.82,24.19-6.82
		c8.96,0,17.31,1.9,25.05,5.7v8.38c-4.16-2.08-8.19-3.67-12.09-4.78c-3.91-1.11-8.44-1.67-13.6-1.67c-8.1,0-14.24,1.68-18.44,5.05
		c-4.19,3.37-6.29,8.13-6.29,14.3c0,4.3,0.98,7.65,2.96,10.05c1.97,2.4,4.68,4.25,8.12,5.54c3.44,1.29,8.63,2.79,15.59,4.51
		c9.67,2.44,16.72,5.71,21.12,9.83c4.41,4.12,6.61,10.02,6.61,17.68c0,9.46-3.22,17-9.67,22.63c-6.45,5.62-15.26,8.44-26.44,8.44
		C1317.2,1202.66,1308.1,1200.94,1301.93,1197.5z"/>
	<path class="st2" d="M1729.7,1197.5v-8.92c7.74,4.23,16.84,6.34,27.3,6.34c8.53,0,15.28-1.99,20.26-5.97
		c4.98-3.98,7.47-9.55,7.47-16.71c0-5.45-1.65-9.64-4.94-12.58c-3.3-2.94-8.81-5.34-16.55-7.2c-7.09-1.72-12.9-3.51-17.41-5.37
		c-4.51-1.86-8.21-4.59-11.07-8.17c-2.87-3.58-4.3-8.31-4.3-14.19c0-9.39,3.15-16.36,9.46-20.91c6.31-4.55,14.37-6.82,24.19-6.82
		c8.96,0,17.31,1.9,25.05,5.7v8.38c-4.16-2.08-8.19-3.67-12.09-4.78c-3.91-1.11-8.44-1.67-13.6-1.67c-8.1,0-14.24,1.68-18.44,5.05
		c-4.19,3.37-6.29,8.13-6.29,14.3c0,4.3,0.98,7.65,2.96,10.05c1.97,2.4,4.68,4.25,8.12,5.54c3.44,1.29,8.63,2.79,15.59,4.51
		c9.67,2.44,16.71,5.71,21.12,9.83c4.41,4.12,6.61,10.02,6.61,17.68c0,9.46-3.22,17-9.67,22.63c-6.45,5.62-15.26,8.44-26.44,8.44
		C1744.97,1202.66,1735.86,1200.94,1729.7,1197.5z"/>
	<path class="st2" d="M1965.19,1149.99c0-16.05,4.1-28.9,12.31-38.54c8.2-9.64,19.12-14.46,32.73-14.46
		c13.69,0,24.56,4.8,32.62,14.4c8.06,9.6,12.09,22.47,12.09,38.59c0,15.69-4.12,28.39-12.36,38.1
		c-8.24,9.71-19.03,14.57-32.36,14.57c-13.69,0-24.62-4.78-32.79-14.35C1969.28,1178.74,1965.19,1165.97,1965.19,1149.99z
		 M2045.92,1149.99c0-13.83-3.22-24.81-9.67-32.95c-6.45-8.13-15.12-12.2-26.01-12.2c-11.04,0-19.8,4.05-26.28,12.15
		c-6.49,8.1-9.73,19.1-9.73,33c0,13.76,3.21,24.65,9.62,32.68c6.41,8.03,15.21,12.04,26.39,12.04c11.04,0,19.74-3.99,26.12-11.99
		C2042.73,1174.73,2045.92,1163.82,2045.92,1149.99z"/>
	<path class="st2" d="M2244.11,1188.25h-0.22l-1.07,11.72h-7.74c0.43-10.53,0.64-21.03,0.64-31.49v-124.16h8.6v67.83h0.21
		c3.66-4.66,8.24-8.35,13.76-11.07c5.52-2.72,11.5-4.08,17.95-4.08c13.69,0,24.22,4.42,31.6,13.27
		c7.38,8.85,11.07,21.95,11.07,39.29c0,11.61-1.99,21.41-5.97,29.4s-9.26,13.94-15.86,17.84c-6.59,3.91-13.83,5.86-21.71,5.86
		c-7.17,0-13.2-1.36-18.11-4.08C2252.37,1195.85,2247.98,1192.41,2244.11,1188.25z M2309.9,1149.56c0-29.81-11.14-44.72-33.43-44.72
		c-12.54,0-23.26,5.52-32.14,16.55v57.4c2.79,3.94,6.79,7.58,11.99,10.91c5.19,3.33,11.41,5,18.65,5c10.75,0,19.26-4.05,25.53-12.15
		C2306.76,1174.46,2309.9,1163.46,2309.9,1149.56z"/>
	<path class="st2" d="M2699.4,1099.57l1.72,14.08h0.22c4.73-5.59,9.57-9.76,14.51-12.52c4.94-2.76,10.96-4.14,18.06-4.14
		c8.53,0,15.44,1.97,20.75,5.91c5.3,3.94,8.89,8.78,10.75,14.51h0.43c4.87-6.95,10.01-12.09,15.42-15.42c5.41-3.33,11.73-5,18.97-5
		c11.03,0,19.44,3.17,25.21,9.51c5.77,6.34,8.65,15.25,8.65,26.71v66.75h-8.6v-64.71c0-20.28-8.64-30.42-25.91-30.42
		c-6.95,0-12.92,1.88-17.9,5.64c-4.98,3.76-9.66,9.16-14.03,16.18v73.31h-8.6v-67.83c0-8.46-2.27-15.12-6.83-19.99
		c-4.55-4.87-11.02-7.31-19.4-7.31c-6.45,0-12.15,1.54-17.09,4.62c-4.94,3.08-9.82,7.56-14.62,13.44v77.07h-8.6v-100.4H2699.4z"/>
	<path class="st2" d="M3013.79,1148.7c0-10.46,1.83-19.6,5.48-27.41c3.65-7.81,8.67-13.81,15.05-18c6.38-4.19,13.54-6.29,21.5-6.29
		c11.75,0,21.14,3.85,28.16,11.55c7.02,7.7,10.53,19.83,10.53,36.39v3.76h-71.7c0,15.84,3.48,27.46,10.43,34.88
		c6.95,7.42,16.73,11.13,29.35,11.13c10.75,0,20.21-1.9,28.38-5.7v8.06c-6.66,3.73-16.12,5.59-28.38,5.59
		c-15.62,0-27.66-4.69-36.12-14.08C3018.02,1179.19,3013.79,1165.9,3013.79,1148.7z M3055.82,1104.62
		c-8.89,0-16.38,3.39-22.47,10.16c-6.09,6.77-9.53,15.5-10.32,26.18h62.67c-0.22-11.9-2.83-20.92-7.85-27.09
		C3072.84,1107.7,3065.5,1104.62,3055.82,1104.62z"/>
	<path class="st2" d="M3270.24,1150.42c0-16.34,3.94-29.33,11.82-38.97c7.88-9.64,18.45-14.46,31.71-14.46
		c6.88,0,12.84,1.15,17.9,3.44c5.05,2.29,9.44,5.91,13.17,10.86h0.43l-0.43-12.15v-54.82h8.6v135.88c0,8.31,0.21,14.91,0.64,19.78
		h-6.45l-2.36-11.72h-0.43c-2.87,3.87-7.33,7.24-13.38,10.1c-6.06,2.87-12.02,4.3-17.9,4.3c-7.88,0-15.09-1.85-21.61-5.54
		c-6.52-3.69-11.77-9.44-15.75-17.25C3272.23,1172.06,3270.24,1162.24,3270.24,1150.42z M3344.85,1177.29v-56.97
		c-8.81-10.32-19.1-15.48-30.85-15.48c-10.75,0-19.22,4.12-25.42,12.36c-6.2,8.24-9.3,19.46-9.3,33.65
		c0,13.69,3.06,24.42,9.19,32.19c6.13,7.77,14.56,11.66,25.31,11.66c6.52,0,12.61-1.63,18.27-4.89
		C3337.71,1186.55,3341.98,1182.38,3344.85,1177.29z"/>
	<path class="st2" d="M3540.99,1065.71h9.89v10.32h-9.89V1065.71z M3541.64,1099.57h8.6v100.4h-8.6V1099.57z"/>
	<path class="st2" d="M3731.01,1150.42c0-16.34,3.94-29.33,11.82-38.97c7.88-9.64,18.45-14.46,31.71-14.46
		c6.88,0,12.84,1.15,17.9,3.44c5.05,2.29,9.44,5.91,13.17,10.86h0.43l-0.43-12.15v-54.82h8.6v135.88c0,8.31,0.21,14.91,0.65,19.78
		h-6.45l-2.36-11.72h-0.43c-2.87,3.87-7.33,7.24-13.38,10.1c-6.06,2.87-12.02,4.3-17.9,4.3c-7.88,0-15.09-1.85-21.61-5.54
		c-6.52-3.69-11.77-9.44-15.75-17.25C3733,1172.06,3731.01,1162.24,3731.01,1150.42z M3805.61,1177.29v-56.97
		c-8.81-10.32-19.1-15.48-30.85-15.48c-10.75,0-19.22,4.12-25.42,12.36c-6.2,8.24-9.3,19.46-9.3,33.65
		c0,13.69,3.06,24.42,9.19,32.19c6.13,7.77,14.56,11.66,25.31,11.66c6.52,0,12.61-1.63,18.27-4.89
		C3798.48,1186.55,3802.75,1182.38,3805.61,1177.29z"/>
	<path class="st2" d="M3994.45,1171.16c0-9.1,3.24-16.44,9.73-22.03c6.49-5.59,14.85-8.38,25.1-8.38c9.67,0,19.96,1.97,30.85,5.91
		v-12.9c0-9.53-2.47-16.73-7.42-21.6c-4.94-4.87-12.83-7.31-23.65-7.31c-7.09,0-15.69,1.68-25.8,5.05v-8.06
		c2.15-1.29,5.75-2.42,10.8-3.39c5.05-0.97,10.05-1.45,14.99-1.45c13.4,0,23.36,3.05,29.88,9.14c6.52,6.09,9.78,15.3,9.78,27.62
		v34.08c0,7.09,0.29,17.81,0.86,32.14h-7.74l-1.51-11.72h-0.43c-3.37,3.87-8.17,7.24-14.4,10.1c-6.23,2.87-12.36,4.3-18.38,4.3
		c-9.82,0-17.72-2.62-23.7-7.85C3997.44,1189.58,3994.45,1181.7,3994.45,1171.16z M4060.13,1179.22v-25.05
		c-5.38-2.01-10.19-3.42-14.46-4.25c-4.26-0.82-10.09-1.24-17.47-1.24c-7.81,0-13.92,1.95-18.33,5.86
		c-4.41,3.91-6.61,9.44-6.61,16.61c0,8.03,2.19,13.99,6.56,17.9c4.37,3.91,10.14,5.86,17.31,5.86c7.81,0,14.3-1.54,19.46-4.62
		C4051.75,1187.21,4056.26,1183.52,4060.13,1179.22z"/>
</g>
</svg>
