<?xml version="1.0" standalone="no"?>
<!DOCTYPE svg PUBLIC "-//W3C//DTD SVG 20010904//EN"
 "http://www.w3.org/TR/2001/REC-SVG-20010904/DTD/svg10.dtd">
<svg version="1.0" xmlns="http://www.w3.org/2000/svg"
 width="5856.000000pt" height="1546.000000pt" viewBox="0 0 5856.000000 1546.000000"
 preserveAspectRatio="xMidYMid meet">

<g transform="translate(0.000000,1546.000000) scale(0.100000,-0.100000)"
fill="#000000" stroke="none">
<path d="M4249 14047 c-1346 -776 -2447 -1416 -2447 -1422 0 -9 1136 -672
1168 -682 8 -2 849 478 1869 1066 1020 589 1857 1071 1862 1071 8 0 5476
-3156 5497 -3172 18 -15 18 -6341 0 -6356 -20 -16 -5490 -3172 -5498 -3172 -3
0 -974 559 -2156 1241 -1182 683 -2153 1242 -2159 1242 -13 0 -1185 -676
-1185 -684 0 -6 5463 -3163 5492 -3174 7 -3 1516 863 3353 1923 l3340 1929 0
3873 0 3873 -3340 1929 c-1837 1060 -3342 1928 -3345 1928 -3 0 -1106 -636
-2451 -1413z"/>
<path d="M46150 9356 l0 -4786 635 0 635 0 -2 4277 -3 4276 -575 464 c-316
255 -601 484 -632 509 l-58 45 0 -4785z"/>
<path d="M305 11771 l-290 -168 -3 -3868 c-2 -3093 0 -3866 10 -3862 7 3 274
156 593 340 l580 336 3 2831 c2 2259 5 2831 15 2827 6 -3 1244 -716 2750
-1586 l2737 -1580 1551 895 c853 493 1558 898 1565 901 12 4 14 -318 16 -2140
l3 -2144 592 341 592 341 0 2495 0 2495 -296 170 c-163 94 -301 169 -307 167
-6 -2 -844 -485 -1863 -1073 l-1853 -1070 -1267 732 c-698 403 -2067 1193
-3042 1757 -976 563 -1780 1026 -1785 1028 -6 2 -141 -73 -301 -165z"/>
<path d="M50660 10279 c-138 -12 -350 -53 -483 -94 -808 -245 -1450 -922
-1720 -1815 -142 -469 -172 -1098 -76 -1640 109 -623 397 -1179 822 -1587 376
-360 813 -575 1330 -654 173 -26 495 -36 648 -20 274 30 505 98 764 226 232
114 411 235 663 451 l42 37 0 -282 0 -281 645 0 645 0 -2 2247 -3 2247 -640
513 -640 514 -3 -317 -2 -316 -97 92 c-351 336 -756 558 -1173 645 -198 41
-484 55 -720 34z m795 -1164 c530 -93 939 -449 1151 -997 46 -119 89 -300 110
-460 20 -163 15 -519 -10 -668 -98 -572 -397 -1010 -844 -1234 -200 -100 -385
-144 -642 -153 -284 -9 -472 28 -697 137 -402 196 -705 591 -827 1079 -50 196
-61 299 -61 561 0 268 11 362 65 566 139 529 534 969 1005 1122 77 25 185 48
310 66 62 9 354 -3 440 -19z"/>
<path d="M57335 10270 c-381 -32 -648 -169 -1002 -513 l-123 -120 0 242 0 241
-640 0 -640 0 0 -2760 0 -2760 640 0 639 0 4 1603 c3 1460 5 1612 20 1717 68
447 173 691 384 891 68 64 105 89 186 129 152 74 247 94 437 94 135 -1 168 -4
253 -27 113 -30 267 -101 386 -177 45 -29 83 -51 85 -49 12 13 576 1151 576
1162 0 17 -219 131 -366 191 -273 112 -564 159 -839 136z"/>
</g>
</svg>
